<svg width="256" height="256" viewBox="0 0 256 256" fill="none" xmlns="http://www.w3.org/2000/svg">
  <defs>
    <linearGradient id="bg" x1="32" y1="24" x2="220" y2="232" gradientUnits="userSpaceOnUse">
      <stop stop-color="#89E3FF"/>
      <stop offset="0.52" stop-color="#3DB7F5"/>
      <stop offset="1" stop-color="#1E55D6"/>
    </linearGradient>
    <linearGradient id="card" x1="82" y1="36" x2="184" y2="146" gradientUnits="userSpaceOnUse">
      <stop stop-color="#B5F1FF"/>
      <stop offset="1" stop-color="#48C4FF"/>
    </linearGradient>
    <linearGradient id="card2" x1="98" y1="58" x2="208" y2="160" gradientUnits="userSpaceOnUse">
      <stop stop-color="#7DE5FF"/>
      <stop offset="1" stop-color="#3197FF"/>
    </linearGradient>
    <filter id="shadow" x="22" y="20" width="212" height="218" filterUnits="userSpaceOnUse" color-interpolation-filters="sRGB">
      <feDropShadow dx="0" dy="14" stdDeviation="12" flood-color="#0C2D7A" flood-opacity="0.28"/>
    </filter>
  </defs>
  <g filter="url(#shadow)">
    <rect x="28" y="24" width="200" height="208" rx="34" fill="url(#bg)"/>
    <path d="M92 46H180C191.046 46 200 54.9543 200 66V116H112C100.954 116 92 107.046 92 96V46Z" fill="url(#card)"/>
    <path d="M104 68H196C207.046 68 216 76.9543 216 88V142H124C112.954 142 104 133.046 104 122V68Z" fill="url(#card2)"/>
    <path d="M42 134C42 120.745 52.7452 110 66 110H136V194C136 207.255 125.255 218 112 218H66C52.7452 218 42 207.255 42 194V134Z" fill="#2558D8"/>
    <path d="M60 132.5C60 126.149 65.1492 121 71.5 121H130V188.5C130 194.851 124.851 200 118.5 200H71.5C65.1492 200 60 194.851 60 188.5V132.5Z" stroke="white" stroke-opacity="0.18" stroke-width="2"/>
    <path d="M64 188L76.5 144H88.5L96 176L103.5 144H114.5L127 188H114L109 161L102 188H89.5L82.5 161L77.5 188H64Z" fill="white"/>
  </g>
</svg>
